  0
SECTION
  2
HEADER
  9
$ACADVER
  1
AC1009
  9
$EXTMIN
 10
0.0
 20
0.0
 30
0.0
  9
$EXTMAX
 10
1000.0
 20
1000.0
 30
0.0
  9
$FILLMODE
 70
 0
  9
$SPLFRAME
 70
 1
  0
ENDSEC
  0
SECTION
  2
TABLES
  0
TABLE
  2
LAYER
 70
1
  0
LAYER
  2
0
 70
     0
 62
     7
  6
CONTINUOUS
  0
ENDTAB
  0
ENDSEC
  0
SECTION
  2
ENTITIES
  0
LINE
  8
0
 62
     0
 10
0.891982
 20
0.0105252
 30
0.0
 11
0.698731
 21
0.0227865
 31
0.0
  0
LINE
  8
0
 62
     0
 10
0.698731
 20
0.0227865
 30
0.0
 11
0.575412
 21
0.0360786
 31
0.0
  0
LINE
  8
0
 62
     0
 10
0.575412
 20
0.0360786
 30
0.0
 11
0.499294
 21
0.0539279
 31
0.0
  0
LINE
  8
0
 62
     0
 10
0.499294
 20
0.0539279
 30
0.0
 11
0.447537
 21
0.0799696
 31
0.0
  0
LINE
  8
0
 62
     0
 10
0.447537
 20
0.0799696
 30
0.0
 11
0.380643
 21
0.13265
 31
0.0
  0
LINE
  8
0
 62
     0
 10
0.380643
 20
0.13265
 30
0.0
 11
0.300564
 21
0.207574
 31
0.0
  0
LINE
  8
0
 62
     0
 10
0.300564
 20
0.207574
 30
0.0
 11
0.220921
 21
0.291288
 31
0.0
  0
LINE
  8
0
 62
     0
 10
0.220921
 20
0.291288
 30
0.0
 11
0.155274
 21
0.370335
 31
0.0
  0
LINE
  8
0
 62
     0
 10
0.155274
 20
0.370335
 30
0.0
 11
0.0532769
 21
0.540093
 31
0.0
  0
LINE
  8
0
 62
     0
 10
0.0532769
 20
0.540093
 30
0.0
 11
0.00455729
 21
0.706976
 31
0.0
  0
LINE
  8
0
 62
     0
 10
0.00455729
 20
0.706976
 30
0.0
 11
0.00906033
 21
0.871636
 31
0.0
  0
LINE
  8
0
 62
     0
 10
0.00906033
 20
0.871636
 30
0.0
 11
0.0667318
 21
1.03461
 31
0.0
  0
LINE
  8
0
 62
     0
 10
0.0667318
 20
1.03461
 30
0.0
 11
0.143554
 21
1.14654
 31
0.0
  0
LINE
  8
0
 62
     0
 10
0.143554
 20
1.14654
 30
0.0
 11
0.249675
 21
1.2449
 31
0.0
  0
LINE
  8
0
 62
     0
 10
0.249675
 20
1.2449
 30
0.0
 11
0.381728
 21
1.3272
 31
0.0
  0
LINE
  8
0
 62
     0
 10
0.381728
 20
1.3272
 30
0.0
 11
0.536458
 21
1.39079
 31
0.0
  0
LINE
  8
0
 62
     0
 10
0.536458
 20
1.39079
 30
0.0
 11
0.631728
 21
1.41943
 31
0.0
  0
LINE
  8
0
 62
     0
 10
0.631728
 20
1.41943
 30
0.0
 11
0.727431
 21
1.44293
 31
0.0
  0
LINE
  8
0
 62
     0
 10
0.727431
 20
1.44293
 30
0.0
 11
0.828342
 21
1.46181
 31
0.0
  0
LINE
  8
0
 62
     0
 10
0.828342
 20
1.46181
 30
0.0
 11
0.939344
 21
1.47661
 31
0.0
  0
LINE
  8
0
 62
     0
 10
0.939344
 20
1.47661
 30
0.0
 11
1.06527
 21
1.4879
 31
0.0
  0
LINE
  8
0
 62
     0
 10
1.06527
 20
1.4879
 30
0.0
 11
1.21088
 21
1.49615
 31
0.0
  0
LINE
  8
0
 62
     0
 10
1.21088
 20
1.49615
 30
0.0
 11
1.38118
 21
1.50196
 31
0.0
  0
LINE
  8
0
 62
     0
 10
1.38118
 20
1.50196
 30
0.0
 11
1.58089
 21
1.50575
 31
0.0
  0
LINE
  8
0
 62
     0
 10
1.58089
 20
1.50575
 30
0.0
 11
1.83301
 21
1.5076
 31
0.0
  0
LINE
  8
0
 62
     0
 10
1.83301
 20
1.5076
 30
0.0
 11
2.05268
 21
1.50515
 31
0.0
  0
LINE
  8
0
 62
     0
 10
2.05268
 20
1.50515
 30
0.0
 11
2.24408
 21
1.49815
 31
0.0
  0
LINE
  8
0
 62
     0
 10
2.24408
 20
1.49815
 30
0.0
 11
2.41129
 21
1.48611
 31
0.0
  0
LINE
  8
0
 62
     0
 10
2.41129
 20
1.48611
 30
0.0
 11
2.55843
 21
1.46875
 31
0.0
  0
LINE
  8
0
 62
     0
 10
2.55843
 20
1.46875
 30
0.0
 11
2.68961
 21
1.44558
 31
0.0
  0
LINE
  8
0
 62
     0
 10
2.68961
 20
1.44558
 30
0.0
 11
2.80903
 21
1.41629
 31
0.0
  0
LINE
  8
0
 62
     0
 10
2.80903
 20
1.41629
 30
0.0
 11
2.92079
 21
1.38043
 31
0.0
  0
LINE
  8
0
 62
     0
 10
2.92079
 20
1.38043
 30
0.0
 11
3.0095
 21
1.34554
 31
0.0
  0
LINE
  8
0
 62
     0
 10
3.0095
 20
1.34554
 30
0.0
 11
3.07807
 21
1.30968
 31
0.0
  0
LINE
  8
0
 62
     0
 10
3.07807
 20
1.30968
 30
0.0
 11
3.13878
 21
1.26519
 31
0.0
  0
LINE
  8
0
 62
     0
 10
3.13878
 20
1.26519
 30
0.0
 11
3.204
 21
1.20432
 31
0.0
  0
LINE
  8
0
 62
     0
 10
3.204
 20
1.20432
 30
0.0
 11
3.29943
 21
1.09239
 31
0.0
  0
LINE
  8
0
 62
     0
 10
3.29943
 20
1.09239
 30
0.0
 11
3.36074
 21
0.978244
 31
0.0
  0
LINE
  8
0
 62
     0
 10
3.36074
 20
0.978244
 30
0.0
 11
3.391
 21
0.85395
 31
0.0
  0
LINE
  8
0
 62
     0
 10
3.391
 20
0.85395
 30
0.0
 11
3.39328
 21
0.711535
 31
0.0
  0
LINE
  8
0
 62
     0
 10
3.39328
 20
0.711535
 30
0.0
 11
3.38183
 21
0.623372
 31
0.0
  0
LINE
  8
0
 62
     0
 10
3.38183
 20
0.623372
 30
0.0
 11
3.35829
 21
0.545736
 31
0.0
  0
LINE
  8
0
 62
     0
 10
3.35829
 20
0.545736
 30
0.0
 11
3.31836
 21
0.468317
 31
0.0
  0
LINE
  8
0
 62
     0
 10
3.31836
 20
0.468317
 30
0.0
 11
3.25786
 21
0.38086
 31
0.0
  0
LINE
  8
0
 62
     0
 10
3.25786
 20
0.38086
 30
0.0
 11
3.19976
 21
0.307781
 31
0.0
  0
LINE
  8
0
 62
     0
 10
3.19976
 20
0.307781
 30
0.0
 11
3.14279
 21
0.246474
 31
0.0
  0
LINE
  8
0
 62
     0
 10
3.14279
 20
0.246474
 30
0.0
 11
3.07775
 21
0.187879
 31
0.0
  0
LINE
  8
0
 62
     0
 10
3.07775
 20
0.187879
 30
0.0
 11
2.99533
 21
0.122884
 31
0.0
  0
LINE
  8
0
 62
     0
 10
2.99533
 20
0.122884
 30
0.0
 11
2.95389
 21
0.0923394
 31
0.0
  0
LINE
  8
0
 62
     0
 10
2.95389
 20
0.0923394
 30
0.0
 11
2.91775
 21
0.0688476
 31
0.0
  0
LINE
  8
0
 62
     0
 10
2.91775
 20
0.0688476
 30
0.0
 11
2.88183
 21
0.0513238
 31
0.0
  0
LINE
  8
0
 62
     0
 10
2.88183
 20
0.0513238
 30
0.0
 11
2.84119
 21
0.0384115
 31
0.0
  0
LINE
  8
0
 62
     0
 10
2.84119
 20
0.0384115
 30
0.0
 11
2.79085
 21
0.0290256
 31
0.0
  0
LINE
  8
0
 62
     0
 10
2.79085
 20
0.0290256
 30
0.0
 11
2.72581
 21
0.0219185
 31
0.0
  0
LINE
  8
0
 62
     0
 10
2.72581
 20
0.0219185
 30
0.0
 11
2.64106
 21
0.0157878
 31
0.0
  0
LINE
  8
0
 62
     0
 10
2.64106
 20
0.0157878
 30
0.0
 11
2.53168
 21
0.00944011
 31
0.0
  0
LINE
  8
0
 62
     0
 10
2.53168
 20
0.00944011
 30
0.0
 11
2.40332
 21
0.00520833
 31
0.0
  0
LINE
  8
0
 62
     0
 10
2.40332
 20
0.00520833
 30
0.0
 11
2.21018
 21
0.00222439
 31
0.0
  0
LINE
  8
0
 62
     0
 10
2.21018
 20
0.00222439
 30
0.0
 11
1.97368
 21
0.000488282
 31
0.0
  0
LINE
  8
0
 62
     0
 10
1.97368
 20
0.000488282
 30
0.0
 11
1.71528
 21
5.42535e-05
 31
0.0
  0
LINE
  8
0
 62
     0
 10
1.71528
 20
5.42535e-05
 30
0.0
 11
1.45649
 21
0.000868056
 31
0.0
  0
LINE
  8
0
 62
     0
 10
1.45649
 20
0.000868056
 30
0.0
 11
1.2187
 21
0.00287543
 31
0.0
  0
LINE
  8
0
 62
     0
 10
1.2187
 20
0.00287543
 30
0.0
 11
1.02333
 21
0.00613064
 31
0.0
  0
LINE
  8
0
 62
     0
 10
1.02333
 20
0.00613064
 30
0.0
 11
0.891982
 21
0.0105252
 31
0.0
  0
ENDSEC
  0
EOF
